# xmcd
#
# Track frame offsets: 
#        150
#        12477
#        23910
#        36039
#        44502
#        56214
#        67861
#        77485
#        88263
#        99324
#        110794
#        120353
#        135830
#        158736
#        172439
#        190025
#        200314
#        212575
#        232609
#        252209
#
# Disc length: 3583 seconds
#
# Revision: 0
# Processed by: cddbd v1.5.1PL2 Copyright (c) Steve Scherf et al.
# Submitted via: ExactAudioCopy v0.95b3
#
DISCID=030dfd14
DTITLE=Loony Bo Lockson - Loony Bo Lockson
DYEAR=1900
DGENRE=Blues
TTITLE0=doggy don't
TTITLE1=bugs in my brain
TTITLE2=big brother
TTITLE3=on the fiddle
TTITLE4=slam on the brakes
TTITLE5=on line
TTITLE6=going to go go go
TTITLE7=could you organise
TTITLE8=wreck less driver
TTITLE9=uppers and downers
TTITLE10=dirty money
TTITLE11=outside my door
TTITLE12=the plasterer of paris
TTITLE13=the power of plants
TTITLE14=glug glug glug
TTITLE15=the secret cheese
TTITLE16=radioactivity
TTITLE17=a trash can in new orleans
TTITLE18=doctor doctor
TTITLE19=a bunch of bankers
EXTD=
EXTT0=
EXTT1=
EXTT2=
EXTT3=
EXTT4=
EXTT5=
EXTT6=
EXTT7=
EXTT8=
EXTT9=
EXTT10=
EXTT11=
EXTT12=
EXTT13=
EXTT14=
EXTT15=
EXTT16=
EXTT17=
EXTT18=
EXTT19=
PLAYORDER=
